<svg version="1.1" xmlns="http://www.w3.org/2000/svg" viewBox="0 0 150 147.77777777777783" width="150" height="147.77777777777783">
  <!-- svg-source:excalidraw -->
  
  <defs>
    <style class="style-fonts">
      @font-face {
        font-family: "Virgil";
        src: url("https://excalidraw.com/Virgil.woff2");
      }
      @font-face {
        font-family: "Cascadia";
        src: url("https://excalidraw.com/Cascadia.woff2");
      }
      @font-face {
        font-family: "Assistant";
        src: url("https://excalidraw.com/Assistant-Regular.woff2");
      }
    </style>
    
  </defs>
  <g stroke-linecap="round" transform="translate(10 10) rotate(0 65 63.888888888888914)"><path d="M82.5 16 C92.52 26.34, 102.54 36.69, 113.5 48 C130 64, 130 64, 113.5 80 C106.86 86.81, 100.21 93.62, 82.5 111.78 C66 127.78, 66 127.78, 49.5 111.78 C38.07 100.78, 26.65 89.77, 16.5 80 C0 64, 0 64, 16.5 48 C26.23 38.57, 35.95 29.14, 49.5 16 C66 0, 66 0, 82.5 16" stroke="none" stroke-width="0" fill="#1e1e1e"></path><path d="M82.5 16 C90.83 24.6, 99.17 33.21, 113.5 48 M82.5 16 C91.18 24.96, 99.87 33.93, 113.5 48 M113.5 48 C130 64, 130 64, 113.5 80 M113.5 48 C130 64, 130 64, 113.5 80 M113.5 80 C101.9 91.89, 90.31 103.77, 82.5 111.78 M113.5 80 C104.71 89.01, 95.93 98.01, 82.5 111.78 M82.5 111.78 C66 127.78, 66 127.78, 49.5 111.78 M82.5 111.78 C66 127.78, 66 127.78, 49.5 111.78 M49.5 111.78 C42.33 104.87, 35.16 97.97, 16.5 80 M49.5 111.78 C40.53 103.14, 31.56 94.5, 16.5 80 M16.5 80 C0 64, 0 64, 16.5 48 M16.5 80 C0 64, 0 64, 16.5 48 M16.5 48 C27.7 37.14, 38.91 26.27, 49.5 16 M16.5 48 C23.85 40.87, 31.2 33.74, 49.5 16 M49.5 16 C66 0, 66 0, 82.5 16 M49.5 16 C66 0, 66 0, 82.5 16" stroke="#e03131" stroke-width="4" fill="none"></path></g><g stroke-linecap="round" transform="translate(53.33333333333337 55.5555555555556) rotate(0 21.666666666666686 18.333333333333314)"><path d="M43.33 18.33 C43.33 19.39, 43.22 20.47, 43 21.52 C42.79 22.56, 42.46 23.61, 42.03 24.6 C41.6 25.6, 41.06 26.58, 40.43 27.5 C39.8 28.42, 39.07 29.3, 38.26 30.12 C37.46 30.93, 36.55 31.7, 35.59 32.38 C34.63 33.06, 33.59 33.68, 32.5 34.21 C31.41 34.74, 30.26 35.2, 29.08 35.56 C27.9 35.92, 26.66 36.2, 25.43 36.39 C24.19 36.57, 22.92 36.67, 21.67 36.67 C20.41 36.67, 19.14 36.57, 17.9 36.39 C16.67 36.2, 15.43 35.92, 14.26 35.56 C13.08 35.2, 11.92 34.74, 10.83 34.21 C9.75 33.68, 8.7 33.06, 7.74 32.38 C6.78 31.7, 5.88 30.93, 5.07 30.12 C4.26 29.3, 3.53 28.42, 2.9 27.5 C2.28 26.58, 1.74 25.6, 1.31 24.6 C0.88 23.61, 0.55 22.56, 0.33 21.52 C0.11 20.47, 0 19.39, 0 18.33 C0 17.27, 0.11 16.19, 0.33 15.15 C0.55 14.1, 0.88 13.06, 1.31 12.06 C1.74 11.07, 2.28 10.09, 2.9 9.17 C3.53 8.25, 4.26 7.36, 5.07 6.55 C5.88 5.74, 6.78 4.97, 7.74 4.29 C8.7 3.61, 9.75 2.99, 10.83 2.46 C11.92 1.93, 13.08 1.47, 14.26 1.11 C15.43 0.74, 16.67 0.46, 17.9 0.28 C19.14 0.09, 20.41 0, 21.67 0 C22.92 0, 24.19 0.09, 25.43 0.28 C26.66 0.46, 27.9 0.74, 29.08 1.11 C30.26 1.47, 31.41 1.93, 32.5 2.46 C33.59 2.99, 34.63 3.61, 35.59 4.29 C36.55 4.97, 37.46 5.74, 38.26 6.55 C39.07 7.36, 39.8 8.25, 40.43 9.17 C41.06 10.09, 41.6 11.07, 42.03 12.06 C42.46 13.06, 42.79 14.1, 43 15.15 C43.22 16.19, 43.28 17.8, 43.33 18.33 C43.39 18.86, 43.39 17.8, 43.33 18.33" stroke="none" stroke-width="0" fill="#1e1e1e"></path><path d="M43.33 18.33 C43.33 19.39, 43.22 20.47, 43 21.52 C42.79 22.56, 42.46 23.61, 42.03 24.6 C41.6 25.6, 41.06 26.58, 40.43 27.5 C39.8 28.42, 39.07 29.3, 38.26 30.12 C37.46 30.93, 36.55 31.7, 35.59 32.38 C34.63 33.06, 33.59 33.68, 32.5 34.21 C31.41 34.74, 30.26 35.2, 29.08 35.56 C27.9 35.92, 26.66 36.2, 25.43 36.39 C24.19 36.57, 22.92 36.67, 21.67 36.67 C20.41 36.67, 19.14 36.57, 17.9 36.39 C16.67 36.2, 15.43 35.92, 14.26 35.56 C13.08 35.2, 11.92 34.74, 10.83 34.21 C9.75 33.68, 8.7 33.06, 7.74 32.38 C6.78 31.7, 5.88 30.93, 5.07 30.12 C4.26 29.3, 3.53 28.42, 2.9 27.5 C2.28 26.58, 1.74 25.6, 1.31 24.6 C0.88 23.61, 0.55 22.56, 0.33 21.52 C0.11 20.47, 0 19.39, 0 18.33 C0 17.27, 0.11 16.19, 0.33 15.15 C0.55 14.1, 0.88 13.06, 1.31 12.06 C1.74 11.07, 2.28 10.09, 2.9 9.17 C3.53 8.25, 4.26 7.36, 5.07 6.55 C5.88 5.74, 6.78 4.97, 7.74 4.29 C8.7 3.61, 9.75 2.99, 10.83 2.46 C11.92 1.93, 13.08 1.47, 14.26 1.11 C15.43 0.74, 16.67 0.46, 17.9 0.28 C19.14 0.09, 20.41 0, 21.67 0 C22.92 0, 24.19 0.09, 25.43 0.28 C26.66 0.46, 27.9 0.74, 29.08 1.11 C30.26 1.47, 31.41 1.93, 32.5 2.46 C33.59 2.99, 34.63 3.61, 35.59 4.29 C36.55 4.97, 37.46 5.74, 38.26 6.55 C39.07 7.36, 39.8 8.25, 40.43 9.17 C41.06 10.09, 41.6 11.07, 42.03 12.06 C42.46 13.06, 42.79 14.1, 43 15.15 C43.22 16.19, 43.28 17.8, 43.33 18.33 C43.39 18.86, 43.39 17.8, 43.33 18.33" stroke="#e03131" stroke-width="4" fill="none"></path></g></svg>