<svg version="1.1" xmlns="http://www.w3.org/2000/svg" viewBox="0 0 1299.9999999999998 805.5555555555557" width="1299.9999999999998" height="805.5555555555557" filter="invert(93%) hue-rotate(180deg)">
  <!-- svg-source:excalidraw -->
  
  <defs>
    <style class="style-fonts">
      @font-face {
        font-family: "Virgil";
        src: url("https://excalidraw.com/Virgil.woff2");
      }
      @font-face {
        font-family: "Cascadia";
        src: url("https://excalidraw.com/Cascadia.woff2");
      }
      @font-face {
        font-family: "Assistant";
        src: url("https://excalidraw.com/Assistant-Regular.woff2");
      }
    </style>
    
  </defs>
  <g stroke-linecap="round" transform="translate(10 9.999999999999972) rotate(0 639.9999999999999 392.7777777777778)"><path d="M32 0 C397.33 0, 762.65 0, 1248 0 M32 0 C500.03 0, 968.06 0, 1248 0 M1248 0 C1269.33 0, 1280 10.67, 1280 32 M1248 0 C1269.33 0, 1280 10.67, 1280 32 M1280 32 C1280 191.22, 1280 350.44, 1280 753.56 M1280 32 C1280 300.83, 1280 569.67, 1280 753.56 M1280 753.56 C1280 774.89, 1269.33 785.56, 1248 785.56 M1280 753.56 C1280 774.89, 1269.33 785.56, 1248 785.56 M1248 785.56 C981.71 785.56, 715.41 785.56, 32 785.56 M1248 785.56 C832.19 785.56, 416.37 785.56, 32 785.56 M32 785.56 C10.67 785.56, 0 774.89, 0 753.56 M32 785.56 C10.67 785.56, 0 774.89, 0 753.56 M0 753.56 C0 510.18, 0 266.81, 0 32 M0 753.56 C0 538.75, 0 323.95, 0 32 M0 32 C0 10.67, 10.67 0, 32 0 M0 32 C0 10.67, 10.67 0, 32 0" stroke="#1e1e1e" stroke-width="4" fill="none"></path></g><g stroke-linecap="round" transform="translate(922.2222222222224 42.222222222222086) rotate(0 158.8888888888889 147.22222222222229)"><path d="M317.78 147.22 C317.78 151.07, 317.61 154.93, 317.29 158.77 C316.96 162.61, 316.47 166.45, 315.82 170.25 C315.17 174.06, 314.36 177.85, 313.39 181.59 C312.42 185.33, 311.29 189.05, 310 192.72 C308.72 196.38, 307.27 200, 305.68 203.56 C304.09 207.12, 302.35 210.63, 300.46 214.06 C298.57 217.49, 296.54 220.86, 294.36 224.15 C292.19 227.43, 289.88 230.64, 287.43 233.76 C284.99 236.87, 282.41 239.91, 279.71 242.84 C277.01 245.76, 274.18 248.6, 271.24 251.32 C268.3 254.05, 265.24 256.67, 262.08 259.17 C258.92 261.67, 255.64 264.06, 252.28 266.33 C248.92 268.59, 245.45 270.74, 241.91 272.75 C238.37 274.76, 234.73 276.65, 231.02 278.4 C227.32 280.15, 223.53 281.76, 219.69 283.24 C215.85 284.71, 211.94 286.05, 207.99 287.24 C204.04 288.43, 200.02 289.48, 195.98 290.38 C191.94 291.28, 187.85 292.03, 183.74 292.63 C179.64 293.23, 175.5 293.69, 171.36 293.99 C167.21 294.29, 163.04 294.44, 158.89 294.44 C154.73 294.44, 150.57 294.29, 146.42 293.99 C142.28 293.69, 138.14 293.23, 134.03 292.63 C129.93 292.03, 125.84 291.28, 121.8 290.38 C117.76 289.48, 113.74 288.43, 109.79 287.24 C105.84 286.05, 101.92 284.71, 98.08 283.24 C94.25 281.76, 90.46 280.15, 86.75 278.4 C83.05 276.65, 79.41 274.76, 75.87 272.75 C72.33 270.74, 68.86 268.59, 65.5 266.33 C62.13 264.06, 58.86 261.67, 55.7 259.17 C52.54 256.67, 49.48 254.05, 46.54 251.32 C43.6 248.6, 40.77 245.76, 38.07 242.84 C35.37 239.91, 32.79 236.87, 30.35 233.76 C27.9 230.64, 25.59 227.43, 23.41 224.15 C21.24 220.86, 19.2 217.49, 17.32 214.06 C15.43 210.63, 13.68 207.12, 12.09 203.56 C10.5 200, 9.06 196.38, 7.78 192.72 C6.49 189.05, 5.36 185.33, 4.39 181.59 C3.42 177.85, 2.61 174.06, 1.96 170.25 C1.31 166.45, 0.82 162.61, 0.49 158.77 C0.16 154.93, 0 151.07, 0 147.22 C0 143.37, 0.16 139.51, 0.49 135.67 C0.82 131.83, 1.31 127.99, 1.96 124.19 C2.61 120.39, 3.42 116.6, 4.39 112.85 C5.36 109.11, 6.49 105.39, 7.78 101.73 C9.06 98.07, 10.5 94.44, 12.09 90.88 C13.68 87.33, 15.43 83.82, 17.32 80.38 C19.2 76.95, 21.24 73.58, 23.41 70.3 C25.59 67.02, 27.9 63.8, 30.35 60.69 C32.79 57.57, 35.37 54.54, 38.07 51.61 C40.77 48.68, 43.6 45.84, 46.54 43.12 C49.48 40.4, 52.54 37.77, 55.7 35.27 C58.86 32.77, 62.13 30.38, 65.5 28.12 C68.86 25.85, 72.33 23.71, 75.87 21.69 C79.41 19.68, 83.05 17.79, 86.75 16.05 C90.46 14.3, 94.25 12.68, 98.08 11.21 C101.92 9.73, 105.84 8.4, 109.79 7.21 C113.74 6.02, 117.76 4.97, 121.8 4.07 C125.84 3.17, 129.93 2.41, 134.03 1.81 C138.14 1.21, 142.28 0.76, 146.42 0.45 C150.57 0.15, 154.73 0, 158.89 0 C163.04 0, 167.21 0.15, 171.36 0.45 C175.5 0.76, 179.64 1.21, 183.74 1.81 C187.85 2.41, 191.94 3.17, 195.98 4.07 C200.02 4.97, 204.04 6.02, 207.99 7.21 C211.94 8.4, 215.85 9.73, 219.69 11.21 C223.53 12.68, 227.32 14.3, 231.02 16.05 C234.73 17.79, 238.37 19.68, 241.91 21.69 C245.45 23.71, 248.92 25.85, 252.28 28.12 C255.64 30.38, 258.92 32.77, 262.08 35.27 C265.24 37.77, 268.3 40.4, 271.24 43.12 C274.18 45.84, 277.01 48.68, 279.71 51.61 C282.41 54.54, 284.99 57.57, 287.43 60.69 C289.88 63.8, 292.19 67.02, 294.36 70.3 C296.54 73.58, 298.57 76.95, 300.46 80.38 C302.35 83.82, 304.09 87.33, 305.68 90.88 C307.27 94.44, 308.72 98.07, 310 101.73 C311.29 105.39, 312.42 109.11, 313.39 112.85 C314.36 116.6, 315.17 120.39, 315.82 124.19 C316.47 127.99, 316.96 131.83, 317.29 135.67 C317.61 139.51, 317.78 143.37, 317.78 147.22" stroke="#1e1e1e" stroke-width="4" fill="none"></path></g><g stroke-linecap="round" transform="translate(371.1111111111112 323.33333333333303) rotate(0 290.5555555555555 71.66666666666669)"><path d="M32 0 C180.38 0, 328.77 0, 549.11 0 M32 0 C206.11 0, 380.22 0, 549.11 0 M549.11 0 C570.44 0, 581.11 10.67, 581.11 32 M549.11 0 C570.44 0, 581.11 10.67, 581.11 32 M581.11 32 C581.11 51.35, 581.11 70.7, 581.11 111.33 M581.11 32 C581.11 55.88, 581.11 79.75, 581.11 111.33 M581.11 111.33 C581.11 132.67, 570.44 143.33, 549.11 143.33 M581.11 111.33 C581.11 132.67, 570.44 143.33, 549.11 143.33 M549.11 143.33 C385.39 143.33, 221.67 143.33, 32 143.33 M549.11 143.33 C371.75 143.33, 194.38 143.33, 32 143.33 M32 143.33 C10.67 143.33, 0 132.67, 0 111.33 M32 143.33 C10.67 143.33, 0 132.67, 0 111.33 M0 111.33 C0 80.76, 0 50.18, 0 32 M0 111.33 C0 92.56, 0 73.78, 0 32 M0 32 C0 10.67, 10.67 0, 32 0 M0 32 C0 10.67, 10.67 0, 32 0" stroke="#1e1e1e" stroke-width="4" fill="none"></path></g></svg>